<svg width="30" height="31" viewBox="0 0 30 31" fill="none" xmlns="http://www.w3.org/2000/svg">
<g clip-path="url(#clip0)">
<path d="M17.4183 30.4824C17.2933 30.5027 17.1679 30.5215 17.042 30.5386C17.1679 30.5215 17.2933 30.5027 17.4183 30.4824Z" fill="black"/>
<path d="M17.7183 30.4312C17.6585 30.4421 17.5988 30.4522 17.5391 30.4624C17.5988 30.4522 17.6585 30.4421 17.7183 30.4312Z" fill="black"/>
<path d="M16.7077 30.5796C16.5614 30.596 16.4142 30.6106 16.2666 30.623C16.4142 30.6106 16.5614 30.596 16.7077 30.5796Z" fill="black"/>
<path d="M16.9957 30.5449C16.9254 30.5543 16.8547 30.563 16.7842 30.5712C16.8547 30.563 16.9254 30.5543 16.9957 30.5449Z" fill="black"/>
<path d="M18.1271 30.3506C18.0745 30.3618 18.0216 30.373 17.9688 30.3837C18.0216 30.373 18.0745 30.3618 18.1271 30.3506Z" fill="black"/>
<path d="M19.1404 30.0996C19.0978 30.1117 19.0553 30.1231 19.0127 30.135C19.0553 30.1231 19.0978 30.1117 19.1404 30.0996Z" fill="black"/>
<path d="M18.8345 30.1831C18.7882 30.1952 18.7418 30.2075 18.6953 30.2192C18.7418 30.2075 18.7882 30.1954 18.8345 30.1831Z" fill="black"/>
<path d="M18.433 30.2827C18.384 30.2941 18.3346 30.3049 18.2852 30.3158C18.3346 30.3049 18.384 30.2941 18.433 30.2827Z" fill="black"/>
<path d="M16.2615 30.6235C16.1826 30.6302 16.1036 30.6361 16.0244 30.6413C16.1036 30.6361 16.1826 30.6302 16.2615 30.6235Z" fill="black"/>
<path d="M30 15.7307C30 7.4775 23.283 0.784668 15 0.784668C6.717 0.784668 0 7.4775 0 15.7307C0 23.9839 6.717 30.6767 15 30.6767C15.0881 30.6767 15.1758 30.6749 15.2637 30.6733V19.0385H12.041V15.2962H15.2637V12.5424C15.2637 9.34871 17.2204 7.61045 20.0796 7.61045C21.4487 7.61045 22.6257 7.71217 22.9688 7.75755V11.0954H20.9972C19.4417 11.0954 19.1405 11.832 19.1405 12.9128V15.2962H22.8598L22.375 19.0385H19.1405V30.0993C25.4102 28.3083 30 22.5528 30 15.7307Z" fill="#E2AB3F"/>
<path d="M15.9906 30.6436C15.8345 30.6536 15.6777 30.6616 15.5205 30.6668C15.6777 30.6616 15.8345 30.6536 15.9906 30.6436Z" fill="black"/>
<path d="M15.5127 30.667C15.4298 30.6697 15.3468 30.6718 15.2637 30.6732C15.3468 30.6718 15.4298 30.6697 15.5127 30.667Z" fill="black"/>
</g>
<defs>
<clipPath id="clip0">
<rect width="30" height="29.8921" fill="white" transform="translate(0 0.784668)"/>
</clipPath>
</defs>
</svg>
