<svg width="30" height="30" viewBox="0 0 30 30" fill="none" xmlns="http://www.w3.org/2000/svg">
<g clip-path="url(#clip0)">
<path d="M26.3377 3.58301H3.66853C1.64494 3.58301 0 5.22203 0 7.23834V22.6761C0 24.6924 1.64494 26.3314 3.66853 26.3314H26.3315C28.3551 26.3314 30 24.6924 30 22.6761V7.24452C30.0062 5.22822 28.3613 3.58301 26.3377 3.58301ZM28.3302 22.6761C28.3302 23.7708 27.4364 24.6615 26.3377 24.6615H3.66853C2.56983 24.6615 1.67598 23.7708 1.67598 22.6761V7.24452C1.67598 6.14978 2.56983 5.25914 3.66853 5.25914H26.3315C27.4302 5.25914 28.324 6.14978 28.324 7.24452V22.6761H28.3302Z" fill="#E2AB3F"/>
<path d="M18.9201 14.7653L26.2572 8.20919C26.5986 7.89994 26.6296 7.37421 26.3193 7.02785C26.0089 6.68768 25.4813 6.65675 25.1337 6.966L15.0157 16.0146L13.0418 14.2581C13.0356 14.2519 13.0294 14.2457 13.0294 14.2396C12.9859 14.1963 12.9425 14.1591 12.8928 14.122L4.86054 6.95982C4.51293 6.65057 3.98531 6.68149 3.67494 7.02785C3.36458 7.37421 3.39561 7.89994 3.74322 8.20919L11.1672 14.8209L3.77426 21.7172C3.43906 22.0326 3.42044 22.5584 3.73702 22.8985C3.90461 23.0717 4.12808 23.1645 4.35154 23.1645C4.55638 23.1645 4.76122 23.0903 4.92261 22.9418L12.4273 15.9466L14.4633 17.7588C14.6247 17.9011 14.8233 17.9691 15.0219 17.9691C15.2206 17.9691 15.4254 17.8949 15.5806 17.7526L17.6725 15.8848L25.1337 22.948C25.2951 23.1026 25.5061 23.1769 25.7109 23.1769C25.9344 23.1769 26.1517 23.0903 26.3193 22.9171C26.6358 22.5831 26.6234 22.0512 26.2882 21.7358L18.9201 14.7653Z" fill="#E2AB3F"/>
</g>
<defs>
<clipPath id="clip0">
<rect width="30" height="29.8921" fill="white" transform="translate(0 0.0112305)"/>
</clipPath>
</defs>
</svg>
