<svg width="30" height="31" viewBox="0 0 30 31" fill="none" xmlns="http://www.w3.org/2000/svg">
<g clip-path="url(#clip0)">
<path d="M23.7091 18.6762C23.0949 18.039 22.3541 17.6983 21.569 17.6983C20.7902 17.6983 20.0431 18.0327 19.4036 18.6699L17.4027 20.6572C17.2381 20.5689 17.0735 20.4869 16.9152 20.4049C16.6873 20.2913 16.472 20.1841 16.2884 20.0705C14.4142 18.8844 12.7109 17.3387 11.0774 15.3388C10.2859 14.342 9.75404 13.5029 9.36781 12.6512C9.88701 12.178 10.3682 11.6859 10.8368 11.2128C11.0141 11.0361 11.1913 10.8532 11.3686 10.6765C12.6983 9.35164 12.6983 7.63561 11.3686 6.31074L9.64007 4.5884C9.44379 4.39283 9.24118 4.19094 9.05122 3.98906C8.67132 3.5979 8.27242 3.19413 7.86086 2.8156C7.24669 2.20994 6.51221 1.88818 5.73974 1.88818C4.96727 1.88818 4.22013 2.20994 3.58696 2.8156C3.58063 2.8219 3.58063 2.8219 3.5743 2.82821L1.42152 4.99217C0.61106 5.79972 0.148846 6.78391 0.0475384 7.92582C-0.104423 9.76803 0.440104 11.4841 0.857997 12.607C1.88373 15.364 3.41601 17.9192 5.70175 20.6572C8.47504 23.9568 11.8118 26.5624 15.6235 28.3983C17.0798 29.086 19.0237 29.8998 21.1954 30.0386C21.3284 30.0449 21.4677 30.0512 21.5943 30.0512C23.057 30.0512 24.2853 29.5276 25.2477 28.4866C25.2541 28.474 25.2667 28.4677 25.2731 28.4551C25.6023 28.0576 25.9822 27.698 26.3811 27.3131C26.6534 27.0545 26.932 26.7832 27.2042 26.4993C27.8311 25.8495 28.1603 25.0924 28.1603 24.3164C28.1603 23.5341 27.8247 22.7833 27.1852 22.1524L23.7091 18.6762ZM25.9759 25.3195C25.9695 25.3195 25.9695 25.3258 25.9759 25.3195C25.7289 25.5845 25.4757 25.8242 25.2034 26.0892C24.7918 26.4804 24.374 26.8904 23.9814 27.351C23.3419 28.0324 22.5884 28.3541 21.6007 28.3541C21.5057 28.3541 21.4044 28.3541 21.3094 28.3478C19.4289 28.2279 17.6813 27.4961 16.3707 26.8715C12.7869 25.1429 9.64007 22.6887 7.02508 19.5784C4.86597 16.9854 3.42234 14.588 2.46625 12.014C1.8774 10.4431 1.66212 9.21915 1.7571 8.06462C1.82042 7.32648 2.10534 6.71451 2.63087 6.19087L4.78999 4.03953C5.10024 3.74932 5.42949 3.59159 5.75241 3.59159C6.1513 3.59159 6.47422 3.83133 6.67684 4.03322C6.68317 4.03953 6.6895 4.04584 6.69583 4.05214C7.08206 4.41175 7.4493 4.78398 7.83554 5.18144C8.03182 5.38333 8.23443 5.58521 8.43705 5.79341L10.1656 7.51574C10.8368 8.18449 10.8368 8.80276 10.1656 9.47151C9.98199 9.65447 9.8047 9.83743 9.62108 10.0141C9.08921 10.5566 8.58268 11.0614 8.03182 11.5535C8.01916 11.5661 8.00649 11.5724 8.00016 11.585C7.45563 12.1276 7.55694 12.6575 7.67091 13.0171C7.67724 13.0361 7.68358 13.055 7.68991 13.0739C8.13946 14.159 8.77263 15.1811 9.73505 16.3987L9.74138 16.405C11.4889 18.5501 13.3315 20.2219 15.3639 21.5026C15.6235 21.6667 15.8895 21.7991 16.1427 21.9253C16.3707 22.0389 16.586 22.1461 16.7696 22.2597C16.7949 22.2723 16.8202 22.2912 16.8456 22.3039C17.0608 22.4111 17.2634 22.4616 17.4724 22.4616C17.9979 22.4616 18.3272 22.1335 18.4348 22.0263L20.6003 19.8686C20.8155 19.6541 21.1574 19.3954 21.5563 19.3954C21.9489 19.3954 22.2718 19.6415 22.4681 19.856C22.4744 19.8623 22.4744 19.8623 22.4808 19.8686L25.9695 23.3448C26.6217 23.9883 26.6217 24.6508 25.9759 25.3195Z" fill="#E2AB3F"/>
<path d="M16.2124 7.26965C17.8713 7.54725 19.3782 8.32955 20.5813 9.52825C21.7843 10.7269 22.5631 12.2285 22.848 13.8814C22.9176 14.2978 23.2786 14.588 23.6901 14.588C23.7408 14.588 23.7851 14.5817 23.8357 14.5754C24.3043 14.4997 24.6145 14.0581 24.5386 13.5912C24.1966 11.5913 23.2469 9.76799 21.7969 8.32324C20.347 6.8785 18.5171 5.93216 16.51 5.59148C16.0414 5.51577 15.6045 5.82491 15.5222 6.28546C15.4399 6.74601 15.7438 7.19395 16.2124 7.26965Z" fill="#E2AB3F"/>
<path d="M29.9644 13.3452C29.4009 10.0519 27.8433 7.0552 25.4499 4.67043C23.0565 2.28565 20.049 0.733659 16.7438 0.172164C16.2816 0.0901484 15.8447 0.405595 15.7624 0.866146C15.6864 1.33301 15.9967 1.76832 16.4652 1.85034C19.4158 2.34874 22.1068 3.74302 24.2469 5.86912C26.387 8.00154 27.78 10.6828 28.2802 13.6228C28.3498 14.0392 28.7108 14.3294 29.1223 14.3294C29.173 14.3294 29.2173 14.3231 29.2679 14.3168C29.7302 14.2474 30.0467 13.8057 29.9644 13.3452Z" fill="#E2AB3F"/>
</g>
<defs>
<clipPath id="clip0">
<rect width="30" height="29.8921" fill="white" transform="translate(0 0.15918)"/>
</clipPath>
</defs>
</svg>
