<svg width="30" height="31" viewBox="0 0 30 31" fill="none" xmlns="http://www.w3.org/2000/svg">
<g clip-path="url(#clip0)">
<path d="M17.8711 15.7309C17.8711 17.3109 16.5857 18.5916 15 18.5916C13.4143 18.5916 12.1289 17.3109 12.1289 15.7309C12.1289 14.1509 13.4143 12.8701 15 12.8701C16.5857 12.8701 17.8711 14.1509 17.8711 15.7309Z" fill="#E2AB3F"/>
<path d="M21.7144 10.6691C21.5764 10.2965 21.3562 9.95918 21.0701 9.68232C20.7923 9.39724 20.454 9.17785 20.0797 9.04033C19.7762 8.92288 19.3203 8.78308 18.4805 8.745C17.5721 8.70372 17.2997 8.69482 14.9999 8.69482C12.6999 8.69482 12.4275 8.70349 11.5193 8.74477C10.6796 8.78308 10.2234 8.92288 9.92014 9.04033C9.54591 9.17785 9.2074 9.39724 8.92976 9.68232C8.64366 9.95918 8.42348 10.2962 8.28523 10.6691C8.16736 10.9715 8.02705 11.4261 7.98883 12.2628C7.9474 13.1677 7.93848 13.4391 7.93848 15.7309C7.93848 18.0224 7.9474 18.2938 7.98883 19.199C8.02705 20.0357 8.16736 20.49 8.28523 20.7924C8.42348 21.1653 8.64343 21.5024 8.92953 21.7792C9.2074 22.0643 9.54568 22.2837 9.91991 22.4212C10.2234 22.5389 10.6796 22.6787 11.5193 22.7168C12.4275 22.758 12.6997 22.7667 14.9997 22.7667C17.3 22.7667 17.5723 22.758 18.4803 22.7168C19.3201 22.6787 19.7762 22.5389 20.0797 22.4212C20.8309 22.1325 21.4247 21.5409 21.7144 20.7924C21.8323 20.49 21.9726 20.0357 22.011 19.199C22.0525 18.2938 22.0612 18.0224 22.0612 15.7309C22.0612 13.4391 22.0525 13.1677 22.011 12.2628C21.9728 11.4261 21.8325 10.9715 21.7144 10.6691ZM14.9999 20.1377C12.5571 20.1377 10.5768 18.1647 10.5768 15.7307C10.5768 13.2966 12.5571 11.3237 14.9999 11.3237C17.4426 11.3237 19.4229 13.2966 19.4229 15.7307C19.4229 18.1647 17.4426 20.1377 14.9999 20.1377ZM19.5977 12.1793C19.0269 12.1793 18.5641 11.7182 18.5641 11.1494C18.5641 10.5806 19.0269 10.1195 19.5977 10.1195C20.1685 10.1195 20.6313 10.5806 20.6313 11.1494C20.6311 11.7182 20.1685 12.1793 19.5977 12.1793Z" fill="#E2AB3F"/>
<path d="M15 0.784668C6.717 0.784668 0 7.4775 0 15.7307C0 23.9839 6.717 30.6767 15 30.6767C23.283 30.6767 30 23.9839 30 15.7307C30 7.4775 23.283 0.784668 15 0.784668ZM23.5613 19.269C23.5197 20.1826 23.3739 20.8064 23.161 21.3523C22.7135 22.5052 21.7989 23.4165 20.6419 23.8623C20.0942 24.0744 19.468 24.2195 18.5513 24.2612C17.6328 24.303 17.3394 24.313 15.0002 24.313C12.6608 24.313 12.3676 24.303 11.4489 24.2612C10.5322 24.2195 9.90601 24.0744 9.35829 23.8623C8.78334 23.6468 8.26286 23.3091 7.83257 22.8723C7.39449 22.4438 7.05551 21.925 6.83922 21.3523C6.62636 20.8066 6.48056 20.1826 6.4389 19.2693C6.39656 18.3538 6.38672 18.0615 6.38672 15.7307C6.38672 13.3999 6.39656 13.1076 6.43867 12.1924C6.48033 11.2788 6.6259 10.655 6.83876 10.1091C7.05505 9.53641 7.39426 9.01757 7.83257 8.58905C8.26263 8.15232 8.78334 7.81457 9.35806 7.59905C9.90601 7.38696 10.532 7.24191 11.4489 7.20018C12.3674 7.15844 12.6608 7.14841 15 7.14841C17.3392 7.14841 17.6326 7.15844 18.5511 7.2004C19.468 7.24191 20.094 7.38696 20.6419 7.59882C21.2167 7.81434 21.7374 8.15232 22.1677 8.58905C22.6057 9.0178 22.9449 9.53641 23.161 10.1091C23.3741 10.655 23.5197 11.2788 23.5616 12.1924C23.6034 13.1076 23.6133 13.3999 23.6133 15.7307C23.6133 18.0615 23.6034 18.3538 23.5613 19.269Z" fill="#E2AB3F"/>
</g>
<defs>
<clipPath id="clip0">
<rect width="30" height="29.8921" fill="white" transform="translate(0 0.784668)"/>
</clipPath>
</defs>
</svg>
