<svg width="30" height="31" viewBox="0 0 30 31" fill="none" xmlns="http://www.w3.org/2000/svg">
<g clip-path="url(#clip0)">
<path d="M23.7091 19.2616C23.0949 18.6244 22.3541 18.2837 21.569 18.2837C20.7902 18.2837 20.0431 18.6181 19.4036 19.2553L17.4027 21.2426C17.2381 21.1543 17.0735 21.0723 16.9152 20.9903C16.6873 20.8767 16.472 20.7694 16.2884 20.6559C14.4142 19.4698 12.7109 17.9241 11.0774 15.9242C10.2859 14.9274 9.75404 14.0883 9.36781 13.2366C9.88701 12.7634 10.3682 12.2713 10.8368 11.7982C11.0141 11.6215 11.1913 11.4386 11.3686 11.2619C12.6983 9.93703 12.6983 8.221 11.3686 6.89613L9.64007 5.17379C9.44379 4.97821 9.24117 4.77633 9.05122 4.57444C8.67132 4.18329 8.27242 3.77952 7.86086 3.40098C7.24669 2.79533 6.51221 2.47357 5.73974 2.47357C4.96727 2.47357 4.22013 2.79533 3.58696 3.40098C3.58063 3.40729 3.58063 3.40729 3.5743 3.4136L1.42152 5.57756C0.61106 6.3851 0.148846 7.3693 0.0475384 8.51121C-0.104423 10.3534 0.440104 12.0694 0.857997 13.1924C1.88373 15.9494 3.41601 18.5045 5.70175 21.2426C8.47504 24.5422 11.8118 27.1478 15.6235 28.9837C17.0798 29.6713 19.0237 30.4852 21.1954 30.624C21.3284 30.6303 21.4677 30.6366 21.5943 30.6366C23.057 30.6366 24.2853 30.113 25.2477 29.072C25.2541 29.0594 25.2667 29.0531 25.273 29.0404C25.6023 28.643 25.9822 28.2834 26.3811 27.8985C26.6534 27.6399 26.932 27.3686 27.2042 27.0847C27.8311 26.4349 28.1603 25.6778 28.1603 24.9018C28.1603 24.1195 27.8247 23.3687 27.1852 22.7378L23.7091 19.2616ZM25.9759 25.9049C25.9695 25.9049 25.9695 25.9112 25.9759 25.9049C25.7289 26.1699 25.4757 26.4096 25.2034 26.6746C24.7918 27.0658 24.3739 27.4758 23.9814 27.9364C23.3419 28.6178 22.5884 28.9395 21.6007 28.9395C21.5057 28.9395 21.4044 28.9395 21.3094 28.9332C19.4289 28.8133 17.6813 28.0815 16.3707 27.4569C12.7869 25.7283 9.64007 23.2741 7.02508 20.1638C4.86597 17.5708 3.42234 15.1734 2.46625 12.5994C1.8774 11.0285 1.66212 9.80454 1.7571 8.65001C1.82042 7.91186 2.10534 7.2999 2.63087 6.77626L4.78999 4.62491C5.10024 4.3347 5.42949 4.17698 5.7524 4.17698C6.1513 4.17698 6.47422 4.41672 6.67683 4.61861C6.68316 4.62491 6.6895 4.63122 6.69583 4.63753C7.08206 4.99714 7.4493 5.36937 7.83553 5.76683C8.03182 5.96872 8.23443 6.1706 8.43705 6.3788L10.1656 8.10113C10.8368 8.76988 10.8368 9.38815 10.1656 10.0569C9.98198 10.2399 9.80469 10.4228 9.62108 10.5995C9.08921 11.142 8.58268 11.6467 8.03182 12.1388C8.01915 12.1515 8.00649 12.1578 8.00016 12.1704C7.45563 12.713 7.55694 13.2429 7.67091 13.6025C7.67724 13.6214 7.68357 13.6404 7.68991 13.6593C8.13946 14.7444 8.77263 15.7665 9.73505 16.9841L9.74138 16.9904C11.4889 19.1354 13.3315 20.8073 15.3639 22.088C15.6235 22.252 15.8895 22.3845 16.1427 22.5107C16.3707 22.6243 16.586 22.7315 16.7696 22.8451C16.7949 22.8577 16.8202 22.8766 16.8456 22.8892C17.0608 22.9965 17.2634 23.047 17.4724 23.047C17.9979 23.047 18.3272 22.7189 18.4348 22.6117L20.6003 20.454C20.8155 20.2395 21.1574 19.9808 21.5563 19.9808C21.9489 19.9808 22.2718 20.2269 22.4681 20.4414C22.4744 20.4477 22.4744 20.4477 22.4808 20.454L25.9695 23.9302C26.6217 24.5737 26.6217 25.2362 25.9759 25.9049Z" fill="black"/>
<path d="M16.2124 7.85507C17.8713 8.13267 19.3782 8.91497 20.5813 10.1137C21.7843 11.3124 22.5631 12.8139 22.848 14.4668C22.9176 14.8832 23.2786 15.1734 23.6901 15.1734C23.7408 15.1734 23.7851 15.1671 23.8357 15.1608C24.3043 15.0851 24.6145 14.6435 24.5386 14.1766C24.1966 12.1767 23.2469 10.3534 21.7969 8.90866C20.347 7.46392 18.5171 6.51758 16.51 6.1769C16.0414 6.10119 15.6045 6.41033 15.5222 6.87088C15.4399 7.33143 15.7438 7.77937 16.2124 7.85507Z" fill="black"/>
<path d="M29.9644 13.9306C29.4009 10.6373 27.8433 7.64059 25.4499 5.25582C23.0565 2.87104 20.049 1.31905 16.7438 0.757553C16.2816 0.675537 15.8447 0.990983 15.7624 1.45153C15.6864 1.91839 15.9967 2.35371 16.4652 2.43573C19.4158 2.93413 22.1068 4.3284 24.2469 6.45451C26.387 8.58693 27.78 11.2682 28.2802 14.2082C28.3498 14.6246 28.7108 14.9148 29.1223 14.9148C29.173 14.9148 29.2173 14.9085 29.2679 14.9022C29.7302 14.8328 30.0467 14.3911 29.9644 13.9306Z" fill="black"/>
</g>
<defs>
<clipPath id="clip0">
<rect width="30" height="29.8921" fill="white" transform="translate(0 0.744537)"/>
</clipPath>
</defs>
</svg>
