<svg width="30" height="31" viewBox="0 0 30 31" fill="none" xmlns="http://www.w3.org/2000/svg">
<g clip-path="url(#clip0)">
<path d="M13.1318 18.5309L18.0111 15.7308L13.1318 12.9307V18.5309Z" fill="#E2AB3F"/>
<path d="M15 0.784668C6.717 0.784668 0 7.4775 0 15.7307C0 23.9839 6.717 30.6767 15 30.6767C23.283 30.6767 30 23.9839 30 15.7307C30 7.4775 23.283 0.784668 15 0.784668ZM24.3727 15.746C24.3727 15.746 24.3727 18.7771 23.9868 20.2387C23.7705 21.0388 23.1374 21.6696 22.3345 21.8849C20.8676 22.2696 15 22.2696 15 22.2696C15 22.2696 9.14772 22.2696 7.66548 21.8696C6.86256 21.6543 6.22948 21.0232 6.01318 20.2232C5.62706 18.7771 5.62706 15.7307 5.62706 15.7307C5.62706 15.7307 5.62706 12.6998 6.01318 11.2382C6.22925 10.4381 6.8779 9.79183 7.66548 9.57654C9.13239 9.19181 15 9.19181 15 9.19181C15 9.19181 20.8676 9.19181 22.3345 9.59182C23.1374 9.80711 23.7705 10.4381 23.9868 11.2382C24.3883 12.6998 24.3727 15.746 24.3727 15.746Z" fill="#E2AB3F"/>
</g>
<defs>
<clipPath id="clip0">
<rect width="30" height="29.8921" fill="white" transform="translate(0 0.784668)"/>
</clipPath>
</defs>
</svg>
