<svg width="97" height="36" viewBox="0 0 97 36" fill="none" xmlns="http://www.w3.org/2000/svg">
<path d="M17.1249 35.24C14.9169 35.24 12.8049 34.856 10.7889 34.088C8.80494 33.288 7.04494 32.136 5.50894 30.632C3.97294 29.096 2.75694 27.256 1.86094 25.112C0.996938 22.936 0.564938 20.456 0.564938 17.672C0.564938 15.272 1.01294 13.048 1.90894 11C2.80494 8.952 4.03694 7.16 5.60494 5.624C7.20494 4.056 9.06094 2.84 11.1729 1.976C13.2849 1.112 15.5729 0.679998 18.0369 0.679998C21.1089 0.679998 23.8929 1.352 26.3889 2.696C28.8849 4.008 30.7409 5.816 31.9569 8.12L24.9969 13.448C24.3249 12.104 23.3169 11.032 21.9729 10.232C20.6289 9.4 19.2049 8.984 17.7009 8.984C16.5809 8.984 15.5569 9.208 14.6289 9.656C13.7009 10.104 12.8849 10.728 12.1809 11.528C11.5089 12.328 10.9809 13.288 10.5969 14.408C10.2449 15.496 10.0689 16.696 10.0689 18.008C10.0689 19.352 10.2609 20.568 10.6449 21.656C11.0289 22.744 11.5569 23.688 12.2289 24.488C12.9329 25.256 13.7649 25.864 14.7249 26.312C15.6849 26.728 16.7569 26.936 17.9409 26.936C19.4449 26.936 20.8849 26.568 22.2609 25.832C23.6369 25.064 24.8849 23.992 26.0049 22.616V31.736C23.4449 34.072 20.4849 35.24 17.1249 35.24ZM25.5249 23.576H19.2369V16.856H33.2529V35H25.5249V23.576ZM63.8079 9.08H54.0159V35H44.6559V9.08H34.8159V0.919998H63.8079V9.08ZM73.7931 0.919998L80.4651 24.2L87.0411 0.919998H96.8811L85.1211 35H75.8091L63.9051 0.919998H73.7931Z" fill="white"/>
</svg>
