<svg width="165" height="38" viewBox="0 0 165 38" fill="none" xmlns="http://www.w3.org/2000/svg">
<path d="M0.970881 37V2.81818H8.1978V16.9215H22.8686V2.81818H30.0788V37H22.8686V22.88H8.1978V37H0.970881ZM47.587 37.5007C44.9499 37.5007 42.68 36.9666 40.7773 35.8984C38.8858 34.8191 37.4281 33.2947 36.4045 31.3253C35.3808 29.3447 34.869 27.0025 34.869 24.2986C34.869 21.6616 35.3808 19.3472 36.4045 17.3555C37.4281 15.3638 38.8691 13.8116 40.7273 12.6989C42.5966 11.5862 44.7886 11.0298 47.3033 11.0298C48.9946 11.0298 50.569 11.3024 52.0266 11.8477C53.4954 12.3817 54.775 13.1884 55.8654 14.2678C56.967 15.3471 57.8237 16.7045 58.4357 18.3402C59.0477 19.9647 59.3537 21.8674 59.3537 24.0483V26.0011H37.7063V21.5948H52.6609C52.6609 20.5711 52.4383 19.6643 51.9933 18.8743C51.5482 18.0843 50.9306 17.4667 50.1406 17.0217C49.3617 16.5655 48.4549 16.3374 47.4201 16.3374C46.3408 16.3374 45.3839 16.5877 44.5494 17.0884C43.726 17.578 43.0806 18.2401 42.6133 19.0746C42.146 19.898 41.9067 20.8159 41.8956 21.8285V26.0178C41.8956 27.2862 42.1293 28.3822 42.5966 29.3058C43.075 30.2293 43.7482 30.9414 44.6161 31.4421C45.484 31.9428 46.5133 32.1932 47.7038 32.1932C48.4938 32.1932 49.2171 32.0819 49.8736 31.8594C50.5301 31.6368 51.092 31.303 51.5593 30.858C52.0266 30.4129 52.3827 29.8677 52.6275 29.2223L59.2035 29.6562C58.8697 31.2363 58.1854 32.616 57.1506 33.7955C56.1269 34.9638 54.8028 35.8762 53.1783 36.5327C51.5649 37.178 49.7011 37.5007 47.587 37.5007ZM77.6296 11.3636V16.7045H62.1911V11.3636H77.6296ZM65.696 5.22159H72.8061V29.1222C72.8061 29.7786 72.9063 30.2905 73.1065 30.6577C73.3068 31.0137 73.585 31.2641 73.9411 31.4087C74.3082 31.5534 74.7311 31.6257 75.2095 31.6257C75.5433 31.6257 75.8771 31.5979 76.2109 31.5423C76.5447 31.4755 76.8007 31.4254 76.9787 31.392L78.0969 36.6829C77.7409 36.7942 77.2402 36.9221 76.5948 37.0668C75.9495 37.2225 75.165 37.3171 74.2415 37.3505C72.5279 37.4173 71.0258 37.1892 69.7351 36.6662C68.4555 36.1432 67.4596 35.331 66.7475 34.2294C66.0354 33.1278 65.6849 31.737 65.696 30.0568V5.22159ZM95.8972 11.3636V16.7045H80.4586V11.3636H95.8972ZM83.9636 5.22159H91.0737V29.1222C91.0737 29.7786 91.1738 30.2905 91.3741 30.6577C91.5744 31.0137 91.8526 31.2641 92.2086 31.4087C92.5758 31.5534 92.9986 31.6257 93.4771 31.6257C93.8109 31.6257 94.1447 31.5979 94.4785 31.5423C94.8123 31.4755 95.0682 31.4254 95.2463 31.392L96.3645 36.6829C96.0085 36.7942 95.5078 36.9221 94.8624 37.0668C94.217 37.2225 93.4326 37.3171 92.5091 37.3505C90.7955 37.4173 89.2934 37.1892 88.0027 36.6662C86.7231 36.1432 85.7272 35.331 85.0151 34.2294C84.303 33.1278 83.9525 31.737 83.9636 30.0568V5.22159ZM100.529 37V11.3636H107.639V37H100.529ZM104.1 8.05895C103.043 8.05895 102.137 7.70845 101.38 7.00746C100.634 6.29533 100.262 5.44413 100.262 4.45383C100.262 3.47467 100.634 2.63459 101.38 1.93359C102.137 1.22147 103.043 0.86541 104.1 0.86541C105.158 0.86541 106.059 1.22147 106.804 1.93359C107.561 2.63459 107.939 3.47467 107.939 4.45383C107.939 5.44413 107.561 6.29533 106.804 7.00746C106.059 7.70845 105.158 8.05895 104.1 8.05895ZM124.918 37.5007C122.292 37.5007 120.033 36.9444 118.141 35.8317C116.261 34.7079 114.814 33.1501 113.802 31.1584C112.8 29.1667 112.3 26.8745 112.3 24.282C112.3 21.656 112.806 19.3527 113.818 17.3722C114.842 15.3804 116.294 13.8282 118.175 12.7156C120.055 11.5917 122.292 11.0298 124.884 11.0298C127.121 11.0298 129.079 11.436 130.759 12.2482C132.439 13.0605 133.769 14.201 134.748 15.6697C135.727 17.1385 136.267 18.8632 136.367 20.8438H129.658C129.468 19.5642 128.968 18.5349 128.155 17.756C127.354 16.966 126.303 16.571 125.001 16.571C123.899 16.571 122.937 16.8714 122.114 17.4723C121.301 18.062 120.667 18.9244 120.211 20.0593C119.755 21.1942 119.527 22.5684 119.527 24.1818C119.527 25.8175 119.749 27.2083 120.194 28.3544C120.65 29.5005 121.29 30.3739 122.114 30.9748C122.937 31.5756 123.899 31.8761 125.001 31.8761C125.813 31.8761 126.542 31.7092 127.187 31.3754C127.844 31.0415 128.384 30.5575 128.806 29.9233C129.24 29.2779 129.524 28.5046 129.658 27.6033H136.367C136.256 29.5617 135.722 31.2863 134.765 32.7773C133.819 34.2572 132.512 35.4144 130.843 36.2489C129.174 37.0835 127.199 37.5007 124.918 37.5007ZM148.029 22.179V37H140.919V2.81818H147.829V15.8867H148.13C148.708 14.3735 149.643 13.1884 150.934 12.3317C152.224 11.4638 153.843 11.0298 155.79 11.0298C157.571 11.0298 159.123 11.4193 160.447 12.1982C161.782 12.9659 162.817 14.073 163.551 15.5195C164.297 16.9549 164.664 18.674 164.653 20.6768V37H157.543V21.9453C157.554 20.3653 157.154 19.1358 156.341 18.2567C155.54 17.3777 154.416 16.9382 152.97 16.9382C152.002 16.9382 151.145 17.1441 150.4 17.5558C149.665 17.9674 149.087 18.5683 148.664 19.3583C148.252 20.1372 148.041 21.0774 148.029 22.179Z" fill="white"/>
</svg>
