<svg width="16" height="19" viewBox="0 0 16 19" fill="none" xmlns="http://www.w3.org/2000/svg">
<g clip-path="url(#clip0_494_1032)">
<path d="M8.00356 5.31119C5.73214 5.31119 3.89999 7.12807 3.89999 9.38057C3.89999 11.6331 5.73214 13.4499 8.00356 13.4499C10.275 13.4499 12.1071 11.6331 12.1071 9.38057C12.1071 7.12807 10.275 5.31119 8.00356 5.31119ZM8.00356 12.0262C6.53571 12.0262 5.33571 10.8397 5.33571 9.38057C5.33571 7.9214 6.53214 6.73495 8.00356 6.73495C9.47499 6.73495 10.6714 7.9214 10.6714 9.38057C10.6714 10.8397 9.47142 12.0262 8.00356 12.0262ZM13.2321 5.14474C13.2321 5.67244 12.8036 6.0939 12.275 6.0939C11.7428 6.0939 11.3178 5.6689 11.3178 5.14474C11.3178 4.62057 11.7464 4.19557 12.275 4.19557C12.8036 4.19557 13.2321 4.62057 13.2321 5.14474ZM15.95 6.10807C15.8893 4.83661 15.5964 3.71036 14.6571 2.78244C13.7214 1.85453 12.5857 1.56411 11.3036 1.50036C9.98213 1.42599 6.02142 1.42599 4.69999 1.50036C3.42142 1.56057 2.28571 1.85099 1.34642 2.7789C0.407136 3.70682 0.11785 4.83307 0.0535644 6.10453C-0.0214355 7.41495 -0.0214355 11.3427 0.0535644 12.6531C0.114279 13.9245 0.407136 15.0508 1.34642 15.9787C2.28571 16.9066 3.41785 17.197 4.69999 17.2608C6.02142 17.3352 9.98213 17.3352 11.3036 17.2608C12.5857 17.2006 13.7214 16.9102 14.6571 15.9787C15.5928 15.0508 15.8857 13.9245 15.95 12.6531C16.025 11.3427 16.025 7.41849 15.95 6.10807ZM14.2428 14.0591C13.9643 14.7533 13.425 15.2881 12.7214 15.5679C11.6678 15.9822 9.16785 15.8866 8.00356 15.8866C6.83928 15.8866 4.33571 15.9787 3.28571 15.5679C2.58571 15.2916 2.04642 14.7568 1.76428 14.0591C1.34642 13.0143 1.44285 10.5352 1.44285 9.38057C1.44285 8.22599 1.34999 5.74328 1.76428 4.70203C2.04285 4.00786 2.58214 3.47307 3.28571 3.19328C4.33928 2.7789 6.83928 2.87453 8.00356 2.87453C9.16785 2.87453 11.6714 2.78244 12.7214 3.19328C13.4214 3.46953 13.9607 4.00432 14.2428 4.70203C14.6607 5.74682 14.5643 8.22599 14.5643 9.38057C14.5643 10.5352 14.6607 13.0179 14.2428 14.0591Z" fill="white" fill-opacity="0.75"/>
</g>
<defs>
<clipPath id="clip0_494_1032">
<rect width="16" height="18.1333" fill="white" transform="translate(0 0.317444)"/>
</clipPath>
</defs>
</svg>
