<svg width="95" height="26" viewBox="0 0 95 26" fill="none" xmlns="http://www.w3.org/2000/svg">
<g clip-path="url(#clip0_220_28)">
<path d="M3.47317 6.78634L5.34763 6.78851L8.30628 20.9829L6.46621 20.9808L5.83406 17.406L2.99657 17.4027L2.32175 20.976L0.498881 20.9739L3.47317 6.78634ZM5.57775 15.9866L4.41576 9.59059L3.25616 15.9839L5.57775 15.9866ZM13.3136 21.1464C12.3392 21.1453 11.577 20.9458 11.0271 20.5481C10.4888 20.1503 10.1168 19.5951 9.91127 18.8824C9.70573 18.1697 9.60359 17.2761 9.60483 16.2015L9.61571 6.79345L11.473 6.79559L11.462 16.2913C11.4608 17.3658 11.5802 18.1835 11.8203 18.7444C12.0719 19.3054 12.5702 19.5863 13.3154 19.5871C14.0606 19.588 14.554 19.3082 14.7954 18.7479C15.0482 18.1876 15.1753 17.3701 15.1765 16.2956L15.1875 6.79989L17.0276 6.80202L17.0167 16.2101C17.0155 17.2846 16.9112 18.178 16.7041 18.8903C16.4969 19.6025 16.1236 20.1568 15.5843 20.5533C15.045 20.9498 14.2881 21.1475 13.3136 21.1464ZM20.6023 8.27781L18.2463 8.27509L18.248 6.80343L24.8344 6.81105L24.8327 8.28271L22.5455 8.28006L22.5308 20.9994L20.5875 20.9971L20.6023 8.27781ZM29.7204 21.1654C28.3561 21.1638 27.3763 20.7714 26.7811 19.9881C26.1973 19.1932 25.9063 18.0483 25.908 16.5533L25.9142 11.1747C25.9159 9.70306 26.2153 8.58798 26.8124 7.82949C27.4094 7.07099 28.3843 6.69252 29.7371 6.69409C31.09 6.69565 32.0583 7.08221 32.6421 7.85375C33.2374 8.61363 33.5342 9.72355 33.5325 11.1835L33.5262 16.5796C33.5245 18.0513 33.2251 19.1838 32.6281 19.9774C32.031 20.7709 31.0618 21.1669 29.7204 21.1654ZM29.7222 19.6061C30.4445 19.6069 30.932 19.3914 31.1847 18.9596C31.4374 18.5277 31.5643 17.8738 31.5653 16.9978L31.5725 10.7783C31.5735 9.914 31.4481 9.27731 31.1964 8.86822C30.9446 8.44746 30.4576 8.23666 29.7354 8.23582C29.0016 8.23497 28.5084 8.44464 28.2557 8.86482C28.003 9.27332 27.8762 9.90972 27.8752 10.774L27.868 16.9935C27.8669 17.8695 27.9923 18.5237 28.244 18.9562C28.4957 19.3886 28.9885 19.6053 29.7222 19.6061ZM39.3772 6.82788L44.777 6.83413L44.7753 8.30578L41.3188 8.30178L41.3133 12.9971L44.1164 13.0003L44.1148 14.4019L41.3117 14.3986L41.3057 19.602L44.7967 19.606L44.795 21.0251L39.3608 21.0188L39.3772 6.82788ZM48.419 13.601L45.572 6.83505L47.3777 6.83714L49.4873 11.8502L51.4191 6.84181L53.2248 6.8439L50.2933 13.7608L53.3459 21.035L51.5403 21.0329L49.2765 15.6868L47.3097 21.028L45.504 21.0259L48.419 13.601ZM54.6765 6.84558L58.1331 6.84958C59.3369 6.85097 60.2078 7.18486 60.7458 7.85123C61.2954 8.51761 61.5694 9.4932 61.5679 10.778C61.5666 11.9343 61.2732 12.8333 60.6878 13.475C60.1023 14.1167 59.2536 14.4369 58.1415 14.4356L56.611 14.4339L56.6033 21.0388L54.6601 21.0365L54.6765 6.84558ZM57.5068 13.0158C58.0801 13.0165 58.5215 12.9527 58.8312 12.8246C59.1524 12.6965 59.3819 12.4749 59.5199 12.1597C59.6578 11.8445 59.7271 11.389 59.7278 10.7934C59.7287 10.0692 59.6777 9.53773 59.5749 9.19889C59.4721 8.86006 59.266 8.62038 58.9566 8.47987C58.6587 8.33937 58.183 8.26874 57.5295 8.26798L56.6181 8.26693L56.6126 13.0148L57.5068 13.0158ZM62.9391 6.85514L65.7422 6.85838C67.1524 6.86002 68.1838 7.15904 68.8366 7.75547C69.5009 8.34023 69.8323 9.29836 69.8307 10.6299C69.8286 12.4519 69.2541 13.555 68.1072 13.9391L70.0766 21.0544L68.2022 21.0522L66.387 14.3926L64.8737 14.3909L64.866 21.0483L62.9227 21.0461L62.9391 6.85514ZM65.6148 12.9726C66.4517 12.9736 67.048 12.8049 67.4038 12.4666C67.7711 12.1283 67.9552 11.5154 67.9563 10.6277C67.9569 10.0437 67.8944 9.58811 67.7687 9.26093C67.643 8.92207 67.4197 8.67654 67.0989 8.52433C66.778 8.36044 66.3253 8.27816 65.7406 8.27748L64.8807 8.27649L64.8753 12.9718L65.6148 12.9726ZM71.8567 6.86546L77.2565 6.87171L77.2548 8.34336L73.7982 8.33936L73.7928 13.0346L76.5959 13.0379L76.5943 14.4395L73.7912 14.4362L73.7852 19.6396L77.2761 19.6436L77.2745 21.0627L71.8403 21.0564L71.8567 6.86546ZM82.1277 21.226C80.9583 21.2246 80.0644 20.8557 79.4462 20.1192C78.8394 19.3826 78.5024 18.3719 78.4351 17.0871L80.1553 16.616C80.2116 17.5271 80.3827 18.2631 80.6687 18.8241C80.9661 19.3851 81.453 19.666 82.1295 19.6667C82.6339 19.6673 83.0124 19.5276 83.2649 19.2476C83.529 18.9559 83.6613 18.5414 83.6619 18.0041C83.6626 17.4202 83.5428 16.9353 83.3025 16.5496C83.0621 16.1639 82.6786 15.7371 82.1517 15.2693L79.8154 13.1642C79.3458 12.7432 79.0024 12.2932 78.7851 11.814C78.5793 11.3232 78.4769 10.7275 78.4777 10.0267C78.4789 8.98717 78.7721 8.1816 79.3575 7.60997C79.9429 7.03833 80.74 6.7531 81.7489 6.75427C82.8495 6.75554 83.6803 7.05434 84.2414 7.65066C84.8025 8.24698 85.1396 9.17007 85.2528 10.4199L83.6014 10.8735C83.545 10.0442 83.3852 9.40748 83.1221 8.96334C82.8704 8.50754 82.4121 8.27925 81.7471 8.27848C81.2541 8.27791 80.8756 8.41179 80.6116 8.68012C80.3477 8.93677 80.2154 9.32205 80.2148 9.83596C80.2143 10.2564 80.2827 10.6128 80.4199 10.9049C80.5572 11.1854 80.7918 11.4718 81.124 11.7642L83.4775 13.8693C84.0845 14.4189 84.5653 15.0152 84.92 15.658C85.2861 16.3008 85.4687 17.031 85.4678 17.8486C85.4666 18.8881 85.1561 19.7111 84.5363 20.3178C83.9165 20.9244 83.1136 21.2271 82.1277 21.226ZM90.2561 21.2354C89.0867 21.2341 88.1929 20.8651 87.5746 20.1286C86.9678 19.392 86.6308 18.3813 86.5635 17.0965L88.2837 16.6254C88.34 17.5365 88.5111 18.2725 88.7971 18.8335C89.0945 19.3945 89.5815 19.6754 90.2579 19.6761C90.7623 19.6767 91.1408 19.537 91.3933 19.257C91.6574 18.9653 91.7897 18.5508 91.7903 18.0135C91.791 17.4296 91.6712 16.9447 91.4309 16.559C91.1906 16.1733 90.807 15.7465 90.2801 15.2787L87.9438 13.1737C87.4742 12.7526 87.1308 12.3026 86.9135 11.8234C86.7078 11.3327 86.6053 10.7369 86.6061 10.0361C86.6073 8.99657 86.9006 8.191 87.4859 7.61937C88.0713 7.04774 88.8684 6.7625 89.8773 6.76367C90.9779 6.76494 91.8087 7.06374 92.3698 7.66006C92.9309 8.25638 93.268 9.17948 93.3812 10.4293L91.7298 10.883C91.6734 10.0536 91.5136 9.41688 91.2505 8.97275C90.9988 8.51694 90.5405 8.28865 89.8755 8.28789C89.3825 8.28731 89.004 8.4212 88.7401 8.68953C88.4761 8.94618 88.3438 9.33146 88.3432 9.84537C88.3427 10.2658 88.4111 10.6222 88.5483 10.9143C88.6856 11.1948 88.9202 11.4812 89.2524 11.7736L91.6059 13.8787C92.2129 14.4283 92.6937 15.0246 93.0484 15.6674C93.4145 16.3102 93.5971 17.0404 93.5962 17.858C93.595 18.8975 93.2845 19.7205 92.6647 20.3272C92.0449 20.9338 91.242 21.2365 90.2561 21.2354Z" fill="white"/>
<path d="M0.193298 2.72382L38.4088 2.76803" stroke="white" stroke-width="3"/>
<path d="M0.169128 23.6501L38.3846 23.6943" stroke="white" stroke-width="3"/>
</g>
<defs>
<clipPath id="clip0_220_28">
<rect width="94.1039" height="25.7929" fill="white" transform="translate(0.196411 0.0471802) rotate(0.0662921)"/>
</clipPath>
</defs>
</svg>
