<svg width="129" height="37" viewBox="0 0 129 37" fill="none" xmlns="http://www.w3.org/2000/svg">
<g filter="url(#filter0_d_236_63)">
<g filter="url(#filter1_d_236_63)">
<path fill-rule="evenodd" clip-rule="evenodd" d="M7.94211 35.7463L0 35.747L10.148 17.8535L20.2718 0L30.6266 17.929L40.9812 35.7543L32.8976 35.7586L20.2754 13.9244L7.94211 35.7463Z" fill="#7EA9C9"/>
</g>
<g filter="url(#filter2_d_236_63)">
<path fill-rule="evenodd" clip-rule="evenodd" d="M20.4234 27.2446C21.0176 27.2446 21.606 27.3591 22.155 27.5816C22.7039 27.8041 23.2027 28.1303 23.6229 28.5414C24.043 28.9525 24.3763 29.4406 24.6037 29.9777C24.8311 30.5149 24.9481 31.0906 24.9481 31.672C24.9481 32.5476 24.6827 33.4036 24.1855 34.1317C23.6884 34.8598 22.9817 35.4272 22.155 35.7623C21.3282 36.0974 20.4184 36.1851 19.5407 36.0143C18.663 35.8434 17.8568 35.4218 17.224 34.8026C16.5913 34.1834 16.1603 33.3945 15.9857 32.5357C15.8112 31.6769 15.9008 30.7867 16.2432 29.9777C16.5857 29.1687 17.1656 28.4773 17.9097 27.9908C18.6538 27.5043 19.5286 27.2446 20.4234 27.2446Z" fill="#7EA9C9"/>
</g>
</g>
<path d="M52.25 22.7207V35.9395H47.75V19.0332H51.9844L52.25 22.7207ZM57.3438 18.9238L57.2656 23.0957C57.0469 23.0645 56.7812 23.0384 56.4688 23.0176C56.1667 22.9863 55.8906 22.9707 55.6406 22.9707C55.0052 22.9707 54.4531 23.054 53.9844 23.2207C53.526 23.377 53.1406 23.6113 52.8281 23.9238C52.526 24.2363 52.2969 24.6165 52.1406 25.0645C51.9948 25.5124 51.9115 26.0228 51.8906 26.5957L50.9844 26.3145C50.9844 25.2207 51.0938 24.2155 51.3125 23.2988C51.5312 22.3717 51.849 21.5645 52.2656 20.877C52.6927 20.1895 53.2135 19.6582 53.8281 19.2832C54.4427 18.9082 55.1458 18.7207 55.9375 18.7207C56.1875 18.7207 56.4427 18.7415 56.7031 18.7832C56.9635 18.8145 57.1771 18.8613 57.3438 18.9238ZM72.0513 19.0332V22.2207H62.2075V19.0332H72.0513ZM64.645 14.8613H69.145V30.8457C69.145 31.3353 69.2075 31.7103 69.3325 31.9707C69.4679 32.2311 69.6658 32.4134 69.9263 32.5176C70.1867 32.6113 70.5148 32.6582 70.9106 32.6582C71.1919 32.6582 71.4419 32.6478 71.6606 32.627C71.8898 32.5957 72.0825 32.5645 72.2388 32.5332L72.2544 35.8457C71.869 35.9707 71.4523 36.0697 71.0044 36.1426C70.5565 36.2155 70.0617 36.252 69.52 36.252C68.5304 36.252 67.6658 36.0905 66.9263 35.7676C66.1971 35.4342 65.6346 34.903 65.2388 34.1738C64.8429 33.4447 64.645 32.4863 64.645 31.2988V14.8613ZM82.8838 19.0332V35.9395H78.3681V19.0332H82.8838ZM78.0869 14.627C78.0869 13.9707 78.316 13.429 78.7744 13.002C79.2327 12.5749 79.8473 12.3613 80.6181 12.3613C81.3785 12.3613 81.9879 12.5749 82.4463 13.002C82.915 13.429 83.1494 13.9707 83.1494 14.627C83.1494 15.2832 82.915 15.8249 82.4463 16.252C81.9879 16.679 81.3785 16.8926 80.6181 16.8926C79.8473 16.8926 79.2327 16.679 78.7744 16.252C78.316 15.8249 78.0869 15.2832 78.0869 14.627ZM99.2475 32.127V24.5957C99.2475 24.054 99.159 23.5905 98.9819 23.2051C98.8048 22.8092 98.5288 22.502 98.1538 22.2832C97.7892 22.0645 97.3152 21.9551 96.7319 21.9551C96.2319 21.9551 95.7996 22.0436 95.435 22.2207C95.0704 22.3874 94.7892 22.6322 94.5913 22.9551C94.3933 23.2676 94.2944 23.6374 94.2944 24.0645H89.7944C89.7944 23.3457 89.961 22.6634 90.2944 22.0176C90.6277 21.3717 91.1121 20.804 91.7475 20.3145C92.3829 19.8145 93.1381 19.4238 94.0131 19.1426C94.8985 18.8613 95.8881 18.7207 96.9819 18.7207C98.2944 18.7207 99.461 18.9395 100.482 19.377C101.503 19.8145 102.305 20.4707 102.888 21.3457C103.482 22.2207 103.779 23.3145 103.779 24.627V31.8613C103.779 32.7884 103.836 33.5488 103.951 34.1426C104.065 34.7259 104.232 35.2363 104.451 35.6738V35.9395H99.9038C99.685 35.4811 99.5183 34.9082 99.4038 34.2207C99.2996 33.5228 99.2475 32.8249 99.2475 32.127ZM99.8413 25.6426L99.8725 28.1895H97.3569C96.7631 28.1895 96.2475 28.2572 95.81 28.3926C95.3725 28.528 95.0131 28.7207 94.7319 28.9707C94.4506 29.2103 94.2423 29.4915 94.1069 29.8145C93.9819 30.1374 93.9194 30.4915 93.9194 30.877C93.9194 31.2624 94.0079 31.6113 94.185 31.9238C94.3621 32.2259 94.6173 32.4655 94.9506 32.6426C95.284 32.8092 95.6746 32.8926 96.1225 32.8926C96.7996 32.8926 97.3881 32.7572 97.8881 32.4863C98.3881 32.2155 98.7735 31.8822 99.0444 31.4863C99.3256 31.0905 99.4715 30.7155 99.4819 30.3613L100.669 32.2676C100.503 32.6947 100.274 33.1374 99.9819 33.5957C99.7006 34.054 99.3413 34.4863 98.9038 34.8926C98.4663 35.2884 97.9402 35.6165 97.3256 35.877C96.711 36.127 95.9819 36.252 95.1381 36.252C94.0652 36.252 93.0913 36.0384 92.2163 35.6113C91.3517 35.1738 90.6642 34.5749 90.1538 33.8145C89.6538 33.0436 89.4038 32.1686 89.4038 31.1895C89.4038 30.304 89.5704 29.5176 89.9038 28.8301C90.2371 28.1426 90.7267 27.5645 91.3725 27.0957C92.0288 26.6165 92.8465 26.2572 93.8256 26.0176C94.8048 25.7676 95.9402 25.6426 97.2319 25.6426H99.8413ZM115.174 22.6426V35.9395H110.674V19.0332H114.893L115.174 22.6426ZM114.518 26.8926H113.299C113.299 25.6426 113.46 24.5176 113.783 23.5176C114.106 22.5072 114.559 21.6478 115.143 20.9395C115.726 20.2207 116.419 19.6738 117.221 19.2988C118.033 18.9134 118.939 18.7207 119.939 18.7207C120.731 18.7207 121.455 18.8353 122.111 19.0645C122.768 19.2936 123.33 19.6582 123.799 20.1582C124.278 20.6582 124.643 21.3197 124.893 22.1426C125.153 22.9655 125.283 23.9707 125.283 25.1582V35.9395H120.752V25.1426C120.752 24.3926 120.648 23.8092 120.439 23.3926C120.231 22.9759 119.924 22.6842 119.518 22.5176C119.122 22.3405 118.632 22.252 118.049 22.252C117.445 22.252 116.919 22.3717 116.471 22.6113C116.033 22.8509 115.669 23.1842 115.377 23.6113C115.096 24.028 114.882 24.5176 114.736 25.0801C114.59 25.6426 114.518 26.2467 114.518 26.8926Z" fill="#7EA9C9"/>
<defs>
<filter id="filter0_d_236_63" x="0" y="0" width="40.9812" height="36.0991" filterUnits="userSpaceOnUse" color-interpolation-filters="sRGB">
<feFlood flood-opacity="0" result="BackgroundImageFix"/>
<feColorMatrix in="SourceAlpha" type="matrix" values="0 0 0 0 0 0 0 0 0 0 0 0 0 0 0 0 0 0 127 0" result="hardAlpha"/>
<feOffset/>
<feComposite in2="hardAlpha" operator="out"/>
<feColorMatrix type="matrix" values="0 0 0 0 0 0 0 0 0 0 0 0 0 0 0 0 0 0 0.57 0"/>
<feBlend mode="normal" in2="BackgroundImageFix" result="effect1_dropShadow_236_63"/>
<feBlend mode="normal" in="SourceGraphic" in2="effect1_dropShadow_236_63" result="shape"/>
</filter>
<filter id="filter1_d_236_63" x="0" y="0" width="40.9812" height="35.7588" filterUnits="userSpaceOnUse" color-interpolation-filters="sRGB">
<feFlood flood-opacity="0" result="BackgroundImageFix"/>
<feColorMatrix in="SourceAlpha" type="matrix" values="0 0 0 0 0 0 0 0 0 0 0 0 0 0 0 0 0 0 127 0" result="hardAlpha"/>
<feOffset/>
<feComposite in2="hardAlpha" operator="out"/>
<feColorMatrix type="matrix" values="0 0 0 0 0 0 0 0 0 0 0 0 0 0 0 0 0 0 0.33 0"/>
<feBlend mode="normal" in2="BackgroundImageFix" result="effect1_dropShadow_236_63"/>
<feBlend mode="normal" in="SourceGraphic" in2="effect1_dropShadow_236_63" result="shape"/>
</filter>
<filter id="filter2_d_236_63" x="15.8988" y="27.2446" width="9.04932" height="8.85449" filterUnits="userSpaceOnUse" color-interpolation-filters="sRGB">
<feFlood flood-opacity="0" result="BackgroundImageFix"/>
<feColorMatrix in="SourceAlpha" type="matrix" values="0 0 0 0 0 0 0 0 0 0 0 0 0 0 0 0 0 0 127 0" result="hardAlpha"/>
<feOffset/>
<feComposite in2="hardAlpha" operator="out"/>
<feColorMatrix type="matrix" values="0 0 0 0 0 0 0 0 0 0 0 0 0 0 0 0 0 0 0.29 0"/>
<feBlend mode="normal" in2="BackgroundImageFix" result="effect1_dropShadow_236_63"/>
<feBlend mode="normal" in="SourceGraphic" in2="effect1_dropShadow_236_63" result="shape"/>
</filter>
</defs>
</svg>
