<svg width="95" height="47" viewBox="0 0 95 47" fill="none" xmlns="http://www.w3.org/2000/svg">
<path d="M26.12 38V19.36L18.84 33.24H15.76L8.48 19.36V38H2.96V9.6H8.88L17.28 25.76L25.76 9.6H31.64V38H26.12Z" fill="#F88500"/>
<path d="M35.976 24V15.632H38.12V21.136L41.88 15.616H43.832V24H41.688V18.624L37.976 24H35.976ZM45.3405 24L47.4685 20.736C46.9672 20.5973 46.5672 20.3253 46.2685 19.92C45.9805 19.5147 45.8365 18.9813 45.8365 18.32C45.8365 17.7653 45.9645 17.2853 46.2205 16.88C46.4765 16.4747 46.8285 16.16 47.2765 15.936C47.7245 15.7013 48.2418 15.584 48.8285 15.584H52.8125V24H50.6685V21.104H49.5325L47.6925 24H45.3405ZM49.0845 19.568H50.6685V17.232H49.1645C48.7805 17.232 48.4765 17.3387 48.2525 17.552C48.0285 17.7653 47.9165 18.0427 47.9165 18.384C47.9165 18.7253 48.0125 19.008 48.2045 19.232C48.4072 19.456 48.7005 19.568 49.0845 19.568Z" fill="#6A5858"/>
<path d="M39.864 37.16C39.192 37.16 38.584 37.048 38.04 36.824C37.496 36.5893 37.032 36.2747 36.648 35.88C36.264 35.4747 35.9653 35.016 35.752 34.504C35.5493 33.9813 35.448 33.432 35.448 32.856C35.448 32.056 35.624 31.3253 35.976 30.664C36.3387 30.0027 36.8507 29.4747 37.512 29.08C38.184 28.6747 38.9733 28.472 39.88 28.472C40.7973 28.472 41.5813 28.6747 42.232 29.08C42.8827 29.4747 43.3787 30.0027 43.72 30.664C44.072 31.3147 44.248 32.0187 44.248 32.776C44.248 32.904 44.2427 33.0373 44.232 33.176C44.2213 33.304 44.2107 33.4107 44.2 33.496H37.72C37.7627 33.9227 37.8853 34.296 38.088 34.616C38.3013 34.936 38.568 35.1813 38.888 35.352C39.2187 35.512 39.5707 35.592 39.944 35.592C40.3707 35.592 40.7707 35.4907 41.144 35.288C41.528 35.0747 41.7893 34.7973 41.928 34.456L43.768 34.968C43.5653 35.3947 43.272 35.7733 42.888 36.104C42.5147 36.4347 42.072 36.696 41.56 36.888C41.048 37.0693 40.4827 37.16 39.864 37.16ZM37.672 32.136H42.056C42.0133 31.7093 41.8907 31.3413 41.688 31.032C41.496 30.712 41.24 30.4667 40.92 30.296C40.6 30.1147 40.2427 30.024 39.848 30.024C39.464 30.024 39.112 30.1147 38.792 30.296C38.4827 30.4667 38.2267 30.712 38.024 31.032C37.832 31.3413 37.7147 31.7093 37.672 32.136ZM49.7301 37.16C48.2901 37.16 47.1968 36.7387 46.4501 35.896C45.7141 35.0427 45.3461 33.8 45.3461 32.168C45.3461 31.144 45.4368 30.28 45.6181 29.576C45.7995 28.872 46.0661 28.2907 46.4181 27.832C46.7701 27.3733 47.2128 27 47.7461 26.712C48.2901 26.424 48.9141 26.1947 49.6181 26.024L53.2181 25.112L53.2501 26.856L49.6981 27.784C49.1861 27.9333 48.7381 28.1413 48.3541 28.408C47.9701 28.664 47.6608 29 47.4261 29.416C47.2021 29.8213 47.0581 30.3333 46.9941 30.952C47.3141 30.4293 47.7515 30.0187 48.3061 29.72C48.8608 29.4107 49.5328 29.256 50.3221 29.256C51.0688 29.256 51.7248 29.416 52.2901 29.736C52.8555 30.056 53.2928 30.4987 53.6021 31.064C53.9221 31.6293 54.0821 32.2853 54.0821 33.032C54.0821 33.832 53.9115 34.5467 53.5701 35.176C53.2395 35.7947 52.7488 36.28 52.0981 36.632C51.4581 36.984 50.6688 37.16 49.7301 37.16ZM49.7301 35.336C50.3915 35.336 50.9141 35.1387 51.2981 34.744C51.6928 34.3387 51.8901 33.8053 51.8901 33.144C51.8901 32.504 51.6981 31.9813 51.3141 31.576C50.9301 31.1707 50.4021 30.968 49.7301 30.968C49.3141 30.968 48.9408 31.0533 48.6101 31.224C48.2901 31.3947 48.0341 31.6453 47.8421 31.976C47.6501 32.296 47.5541 32.6853 47.5541 33.144C47.5541 33.5707 47.6395 33.9493 47.8101 34.28C47.9808 34.6107 48.2261 34.872 48.5461 35.064C48.8768 35.2453 49.2715 35.336 49.7301 35.336ZM59.3953 37.16C58.7233 37.16 58.1153 37.048 57.5713 36.824C57.0273 36.5893 56.5633 36.2747 56.1793 35.88C55.7953 35.4747 55.4966 35.016 55.2833 34.504C55.0806 33.9813 54.9793 33.432 54.9793 32.856C54.9793 32.056 55.1553 31.3253 55.5073 30.664C55.8699 30.0027 56.3819 29.4747 57.0433 29.08C57.7153 28.6747 58.5046 28.472 59.4113 28.472C60.3286 28.472 61.1126 28.6747 61.7633 29.08C62.4139 29.4747 62.9099 30.0027 63.2513 30.664C63.6033 31.3147 63.7793 32.0187 63.7793 32.776C63.7793 32.904 63.7739 33.0373 63.7633 33.176C63.7526 33.304 63.7419 33.4107 63.7313 33.496H57.2513C57.2939 33.9227 57.4166 34.296 57.6193 34.616C57.8326 34.936 58.0993 35.1813 58.4193 35.352C58.7499 35.512 59.1019 35.592 59.4753 35.592C59.9019 35.592 60.3019 35.4907 60.6753 35.288C61.0593 35.0747 61.3206 34.7973 61.4593 34.456L63.2993 34.968C63.0966 35.3947 62.8033 35.7733 62.4193 36.104C62.0459 36.4347 61.6033 36.696 61.0913 36.888C60.5793 37.0693 60.0139 37.16 59.3953 37.16ZM57.2033 32.136H61.5873C61.5446 31.7093 61.4219 31.3413 61.2193 31.032C61.0273 30.712 60.7713 30.4667 60.4513 30.296C60.1313 30.1147 59.7739 30.024 59.3793 30.024C58.9953 30.024 58.6433 30.1147 58.3233 30.296C58.0139 30.4667 57.7579 30.712 57.5553 31.032C57.3633 31.3413 57.2459 31.7093 57.2033 32.136ZM64.4774 37.112V35.208C64.7334 35.1973 64.9627 35.1333 65.1654 35.016C65.368 34.8987 65.544 34.7013 65.6934 34.424C65.8534 34.136 65.976 33.736 66.0614 33.224C66.1574 32.712 66.2214 32.056 66.2534 31.256L66.3654 28.616H72.6534V37H70.5094V30.488H68.2534L68.2214 31.464C68.1787 32.5627 68.072 33.4747 67.9014 34.2C67.7307 34.9253 67.4907 35.5013 67.1814 35.928C66.8827 36.344 66.5094 36.6427 66.0614 36.824C65.6134 37.0053 65.0854 37.1013 64.4774 37.112ZM74.601 37V28.616H76.745V31.256H78.649C79.6517 31.256 80.4197 31.512 80.953 32.024C81.4863 32.536 81.753 33.2133 81.753 34.056C81.753 34.6213 81.641 35.128 81.417 35.576C81.193 36.024 80.8623 36.376 80.425 36.632C79.9877 36.8773 79.4437 37 78.793 37H74.601ZM76.745 35.368H78.457C78.745 35.368 78.9797 35.3093 79.161 35.192C79.353 35.0747 79.4917 34.92 79.577 34.728C79.673 34.536 79.721 34.3173 79.721 34.072C79.721 33.8373 79.6783 33.6293 79.593 33.448C79.5077 33.256 79.369 33.1067 79.177 33C78.9957 32.8827 78.7503 32.824 78.441 32.824H76.745V35.368Z" fill="#6F5757"/>
</svg>
