<svg width="151" height="36" viewBox="0 0 151 36" fill="none" xmlns="http://www.w3.org/2000/svg">
<path d="M0.78125 0.875H13.5078C16.1172 0.875 18.3594 1.26563 20.2344 2.04688C22.125 2.82812 23.5781 3.98438 24.5938 5.51562C25.6094 7.04687 26.1172 8.92969 26.1172 11.1641C26.1172 12.9922 25.8047 14.5625 25.1797 15.875C24.5703 17.1719 23.7031 18.2578 22.5781 19.1328C21.4688 19.9922 20.1641 20.6797 18.6641 21.1953L16.4375 22.3672H5.375L5.32812 16.8828H13.5547C14.7891 16.8828 15.8125 16.6641 16.625 16.2266C17.4375 15.7891 18.0469 15.1797 18.4531 14.3984C18.875 13.6172 19.0859 12.7109 19.0859 11.6797C19.0859 10.5859 18.8828 9.64062 18.4766 8.84375C18.0703 8.04688 17.4531 7.4375 16.625 7.01562C15.7969 6.59375 14.7578 6.38281 13.5078 6.38281H7.8125V35H0.78125V0.875ZM19.8594 35L12.0781 19.7891L19.5078 19.7422L27.3828 34.6719V35H19.8594ZM54.4297 29.5156V35H36.2656V29.5156H54.4297ZM38.5625 0.875V35H31.5312V0.875H38.5625ZM52.0625 14.7734V20.1172H36.2656V14.7734H52.0625ZM54.4062 0.875V6.38281H36.2656V0.875H54.4062ZM81.2891 14.7734V20.2578H63.4766V14.7734H81.2891ZM65.5625 0.875V35H58.5312V0.875H65.5625ZM86.3047 0.875V35H79.2969V0.875H86.3047ZM106.719 6.71094L97.4375 35H89.9609L102.641 0.875H107.398L106.719 6.71094ZM114.43 35L105.125 6.71094L104.375 0.875H109.18L121.93 35H114.43ZM114.008 22.2969V27.8047H95.9844V22.2969H114.008ZM143.516 0.875H150.523V23.4219C150.523 26.0469 149.961 28.2578 148.836 30.0547C147.727 31.8516 146.188 33.2031 144.219 34.1094C142.266 35.0156 140.016 35.4688 137.469 35.4688C134.922 35.4688 132.656 35.0156 130.672 34.1094C128.703 33.2031 127.156 31.8516 126.031 30.0547C124.922 28.2578 124.367 26.0469 124.367 23.4219V0.875H131.398V23.4219C131.398 24.9531 131.641 26.2031 132.125 27.1719C132.609 28.1406 133.305 28.8516 134.211 29.3047C135.133 29.7578 136.219 29.9844 137.469 29.9844C138.75 29.9844 139.836 29.7578 140.727 29.3047C141.633 28.8516 142.32 28.1406 142.789 27.1719C143.273 26.2031 143.516 24.9531 143.516 23.4219V0.875Z" fill="white"/>
</svg>
