<svg width="16" height="19" viewBox="0 0 16 19" fill="none" xmlns="http://www.w3.org/2000/svg">
<path d="M14.3554 6.55602C14.3655 6.69814 14.3655 6.8403 14.3655 6.98243C14.3655 11.3174 11.066 16.3124 5.03555 16.3124C3.17767 16.3124 1.45179 15.7743 0 14.8403C0.26397 14.8708 0.517752 14.8809 0.791878 14.8809C2.32485 14.8809 3.73605 14.3632 4.86296 13.4799C3.42133 13.4495 2.2132 12.5053 1.79694 11.2058C2.00001 11.2362 2.20304 11.2565 2.41626 11.2565C2.71067 11.2565 3.00511 11.2159 3.2792 11.1449C1.77666 10.8403 0.649721 9.5205 0.649721 7.92659V7.88599C1.08625 8.12965 1.59391 8.28193 2.13195 8.30221C1.24869 7.71337 0.670034 6.7083 0.670034 5.57123C0.670034 4.96211 0.832441 4.40373 1.11672 3.91641C2.73095 5.90627 5.15736 7.20574 7.87816 7.3479C7.82741 7.10424 7.79694 6.85046 7.79694 6.59664C7.79694 4.78951 9.25888 3.31744 11.0761 3.31744C12.0203 3.31744 12.8731 3.71338 13.4721 4.35298C14.2132 4.21085 14.9238 3.93673 15.5533 3.5611C15.3096 4.32254 14.7919 4.96214 14.1117 5.3682C14.7716 5.29717 15.4112 5.11439 16 4.86061C15.5534 5.51033 14.995 6.08899 14.3554 6.55602Z" fill="white" fill-opacity="0.75"/>
</svg>
