<svg width="20" height="24" viewBox="0 0 20 24" fill="none" xmlns="http://www.w3.org/2000/svg">
<path d="M18.567 7.63005C18.6975 7.20036 18.567 6.88411 17.9391 6.88411H15.8616C15.3326 6.88411 15.0892 7.15567 14.9587 7.45817C14.9587 7.45817 13.9005 9.97098 12.405 11.6004C11.9218 12.0713 11.6996 12.2225 11.4351 12.2225C11.3046 12.2225 11.1035 12.0713 11.1035 11.6416V7.63005C11.1035 7.11442 10.9554 6.88411 10.518 6.88411H7.25184C6.92029 6.88411 6.72277 7.12473 6.72277 7.34817C6.72277 7.8363 7.47053 7.94973 7.54813 9.32473V12.3085C7.54813 12.9616 7.4282 13.0819 7.16366 13.0819C6.45823 13.0819 4.74403 10.5588 3.72821 7.6713C3.52363 7.11098 3.32259 6.88411 2.78998 6.88411H0.712487C0.119923 6.88411 0 7.15567 0 7.45817C0 7.99442 0.705432 10.6585 3.28379 14.1785C5.00151 16.5813 7.42115 17.8841 9.6221 17.8841C10.9448 17.8841 11.107 17.5954 11.107 17.0969C11.107 14.8007 10.9871 14.5841 11.6502 14.5841C11.9571 14.5841 12.4862 14.7354 13.7207 15.8938C15.1315 17.2688 15.3643 17.8841 16.1544 17.8841H18.2319C18.8245 17.8841 19.1243 17.5954 18.9514 17.0247C18.5564 15.825 15.8863 13.3569 15.7664 13.1919C15.4595 12.8069 15.5477 12.635 15.7664 12.2913C15.7699 12.2879 18.306 8.80911 18.567 7.63005Z" fill="white" fill-opacity="0.75"/>
</svg>
